<svg xmlns="http://www.w3.org/2000/svg" xmlns:xlink="http://www.w3.org/1999/xlink" width="199" height="166" viewBox="0 0 199 166">
    <defs>
        <path id="a" d="M0 166h199V0H0z"/>
    </defs>
    <g fill="none" fill-rule="evenodd">
        <path fill="#212153" d="M41.525 4.98a3.354 3.354 0 0 0 .953 2.37c.295.3.64.536 1.037.71.396.175.82.262 1.272.262.444 0 .864-.087 1.26-.261a3.332 3.332 0 0 0 1.037-.712 3.354 3.354 0 0 0 .952-2.37c0-.464-.083-.898-.254-1.301a3.414 3.414 0 0 0-.698-1.06 3.284 3.284 0 0 0-1.037-.719 3.095 3.095 0 0 0-1.26-.261c-.452 0-.876.087-1.272.261a3.266 3.266 0 0 0-1.037.718 3.4 3.4 0 0 0-.698 1.06c-.17.404-.255.838-.255 1.303zm6.107 4.98l-.586-.577a4.598 4.598 0 0 1-2.259.577c-.67 0-1.298-.13-1.886-.39a4.87 4.87 0 0 1-1.54-1.066 5.123 5.123 0 0 1-1.043-1.584 4.9 4.9 0 0 1-.385-1.94c0-.689.128-1.336.385-1.94a5.117 5.117 0 0 1 1.044-1.584C41.8 1.005 42.314.65 42.9.39A4.624 4.624 0 0 1 44.787 0c.67 0 1.299.13 1.886.39s1.1.615 1.54 1.066a5.019 5.019 0 0 1 1.416 3.524c0 .663-.118 1.284-.352 1.866a5.097 5.097 0 0 1-.966 1.543l1.605 1.571h-2.284zM50.582 2.656h1.466v4.77c0 .054.01.139.034.252a.952.952 0 0 0 .517.658c.162.087.376.13.645.13.278 0 .495-.043.653-.13.156-.087.274-.19.355-.308a.965.965 0 0 0 .156-.342 1.36 1.36 0 0 0 .033-.248V2.656h1.465v4.77a2.837 2.837 0 0 1-.148.76 3.135 3.135 0 0 1-.275.589 2.387 2.387 0 0 1-1.203 1.014c-.287.114-.632.171-1.036.171a2.97 2.97 0 0 1-1.042-.164 2.546 2.546 0 0 1-.733-.411 2.053 2.053 0 0 1-.47-.549 3.058 3.058 0 0 1-.39-1.096 2.848 2.848 0 0 1-.027-.315V2.656zM63.752 5.583a2.15 2.15 0 0 0-.256-.82c-.118-.21-.286-.402-.507-.575-.22-.173-.528-.26-.924-.26-.397 0-.725.066-.986.198a1.988 1.988 0 0 0-.62.466c-.154.178-.262.36-.324.546a1.48 1.48 0 0 0-.095.445h3.712zm-1.7-2.927c.503 0 .93.076 1.281.226.352.15.644.34.878.567.234.228.42.482.56.76.14.278.243.544.31.8.068.255.11.48.122.677.014.196.021.33.021.404v.71H60.04c0 .1.036.243.108.428.072.185.187.37.344.556.157.185.364.346.62.481.257.136.57.204.94.204.377 0 .717-.036 1.018-.11.302-.073.565-.154.79-.246.261-.1.495-.218.702-.355v1.525c-.072.083-.205.166-.398.249a4.081 4.081 0 0 1-.668.214c-.252.06-.51.11-.77.151a4.297 4.297 0 0 1-.675.063c-.099 0-.254-.014-.465-.042a3.326 3.326 0 0 1-.71-.184 4.093 4.093 0 0 1-.795-.404c-.27-.172-.518-.4-.743-.683a3.536 3.536 0 0 1-.554-1.046c-.144-.415-.215-.915-.215-1.498 0-.401.078-.807.236-1.217.157-.41.384-.78.682-1.108a3.534 3.534 0 0 1 1.093-.808 3.33 3.33 0 0 1 1.471-.314zM66.555 9.96V2.656h1.416l-.003 1.014c.113-.183.264-.352.455-.507a2.68 2.68 0 0 1 .628-.35c.255-.105.577-.157.966-.157.372 0 .685.061.94.184.254.124.46.262.615.412.156.15.269.294.337.431.07.138.105.22.105.247 0 .028.034-.023.103-.15.07-.128.19-.274.364-.44.172-.163.4-.318.686-.465.285-.146.649-.219 1.09-.219.44 0 .805.082 1.095.246a2.318 2.318 0 0 1 1.076 1.275c.073.229.11.407.11.535V9.96h-1.415V5.396a.785.785 0 0 0-.11-.377 1.306 1.306 0 0 0-.287-.349 1.677 1.677 0 0 0-.405-.253 1.147 1.147 0 0 0-.476-.103c-.478 0-.869.146-1.173.439-.304.293-.456.73-.456 1.315V9.96H70.8V5.424c0-.283-.09-.54-.272-.768-.182-.227-.446-.342-.792-.342-.234 0-.457.036-.668.11a1.65 1.65 0 0 0-.565.329 1.527 1.527 0 0 0-.39.548c-.095.22-.142.475-.142.767V9.96h-1.416zM91.04 5.583a2.136 2.136 0 0 0-.257-.82 1.95 1.95 0 0 0-.505-.575c-.221-.173-.53-.26-.926-.26s-.724.066-.985.198c-.26.133-.468.288-.62.466-.154.178-.262.36-.325.546a1.48 1.48 0 0 0-.095.445h3.713zm-1.7-2.927c.503 0 .93.076 1.28.226.352.15.645.34.879.567.234.228.421.482.56.76.14.278.243.544.31.8.068.255.109.48.122.677.013.196.02.33.02.404v.71h-5.184c0 .1.037.243.109.428.071.185.186.37.344.556.157.185.364.346.62.481.257.136.57.204.94.204.377 0 .717-.036 1.018-.11.302-.073.564-.154.79-.246.26-.1.495-.218.702-.355v1.525c-.073.083-.205.166-.398.249a4.092 4.092 0 0 1-.669.214 9.89 9.89 0 0 1-.769.151 4.288 4.288 0 0 1-.674.063 4 4 0 0 1-.467-.042 3.326 3.326 0 0 1-.709-.184 4.115 4.115 0 0 1-.796-.404c-.27-.172-.517-.4-.742-.683a3.517 3.517 0 0 1-.554-1.046c-.143-.415-.216-.915-.216-1.498 0-.401.079-.807.237-1.217.157-.41.384-.78.681-1.108a3.534 3.534 0 0 1 1.094-.808c.431-.209.922-.314 1.472-.314zM93.843 9.96V2.656h1.334l-.013 1.014c.107-.183.25-.352.429-.507.155-.128.353-.244.594-.35.24-.105.544-.157.912-.157.457 0 .822.08 1.095.24.274.16.481.375.624.644.143.27.237.575.281.918.046.343.068.697.068 1.062v4.44h-1.334V5.424c0-.283-.086-.54-.255-.768-.171-.227-.42-.342-.744-.342-.22 0-.428.036-.627.11a1.475 1.475 0 0 0-.525.329c-.15.146-.272.328-.365.548-.093.22-.14.475-.14.767V9.96h-1.334zM102.717 2.656c.238 0 .447.025.628.075.181.05.337.103.468.159.148.073.28.15.395.233l-.655 1.126a.799.799 0 0 0-.211-.165 1.06 1.06 0 0 0-.26-.124 1.168 1.168 0 0 0-.373-.055c-.298 0-.51.074-.638.22a.713.713 0 0 0-.193.48c0 .248.081.428.242.543.16.114.362.206.606.275.243.068.507.132.791.192.285.06.549.164.792.315.244.152.446.364.607.639.16.274.241.659.241 1.153 0 .302-.055.59-.166.865-.111.274-.271.512-.481.713-.21.202-.466.362-.77.481-.305.12-.645.179-1.023.179a2.811 2.811 0 0 1-1.412-.35 2.714 2.714 0 0 1-.462-.31 8.214 8.214 0 0 0-.345-.274l.665-1.125c.345.31.662.516.95.617.287.101.488.151.604.151.427 0 .71-.084.85-.254.14-.17.21-.4.21-.693 0-.283-.08-.492-.24-.624a1.9 1.9 0 0 0-.599-.323 7.428 7.428 0 0 0-.782-.22 2.786 2.786 0 0 1-.783-.302 1.732 1.732 0 0 1-.598-.584c-.16-.251-.24-.606-.24-1.063 0-.348.063-.646.19-.893a1.72 1.72 0 0 1 .507-.604c.209-.155.443-.27.702-.343.258-.073.52-.11.783-.11"/>
        <mask id="b" fill="#fff">
            <use xlink:href="#a"/>
        </mask>
        <path fill="#212153" d="M106.488 9.96h1.331V2.805h-1.33V9.96zm0-8.35h1.331V0h-1.33v1.61zM110.482 9.96V2.656h1.333l-.012 1.014c.106-.183.249-.352.429-.507.154-.128.352-.244.594-.35.24-.105.544-.157.911-.157.457 0 .823.08 1.096.24.273.16.481.375.624.644.142.27.236.575.281.918.045.343.068.697.068 1.062v4.44h-1.335V5.424c0-.283-.085-.54-.255-.768-.17-.227-.419-.342-.743-.342-.22 0-.429.036-.628.11a1.481 1.481 0 0 0-.524.329c-.15.146-.272.328-.366.548-.092.22-.14.475-.14.767V9.96h-1.333zM120.857 8.494a2.136 2.136 0 0 0 1.53-.635c.193-.196.347-.425.462-.687.114-.262.17-.546.17-.852 0-.296-.056-.577-.17-.844a2.25 2.25 0 0 0-.462-.693 2.136 2.136 0 0 0-1.53-.635c-.3 0-.58.057-.844.17a2.188 2.188 0 0 0-1.162 1.158 2.127 2.127 0 0 0-.171.844c0 .306.057.59.171.852a2.204 2.204 0 0 0 1.162 1.152c.264.113.544.17.844.17zm3.601-5.472v6.584h-1.438v-.942a3.513 3.513 0 0 1-1.122.942 2.97 2.97 0 0 1-1.424.354c-.457 0-.888-.097-1.293-.288a3.41 3.41 0 0 1-1.061-.785 3.795 3.795 0 0 1-.983-2.579 3.792 3.792 0 0 1 .983-2.579 3.4 3.4 0 0 1 1.061-.785 2.984 2.984 0 0 1 1.293-.288c.51 0 .985.115 1.424.347.44.23.814.547 1.122.949v-.93h1.438zM139.1 9.336a5.83 5.83 0 0 1-.807.42c-.236.095-.48.157-.73.184a3.131 3.131 0 0 1-1.461-.178A3.476 3.476 0 0 1 134.9 9a3.714 3.714 0 0 1-.82-1.194 3.624 3.624 0 0 1-.304-1.475c0-.513.09-1 .272-1.463.18-.462.437-.862.768-1.2a3.363 3.363 0 0 1 2.681-1.002c.423.036.811.15 1.165.343l-.556 1.427a3.54 3.54 0 0 0-.472-.178 1.808 1.808 0 0 0-.433-.041c-.647 0-1.135.174-1.467.521-.332.348-.498.87-.498 1.565s.172 1.22.517 1.572c.345.352.828.528 1.448.528.12 0 .226-.004.316-.014.091-.008.18-.03.266-.061.085-.032.178-.073.277-.124.1-.05.218-.117.355-.199l.685 1.331zM144.764 8.534a2.218 2.218 0 0 0 2.06-1.35c.12-.268.179-.558.179-.87 0-.31-.06-.6-.178-.87a2.316 2.316 0 0 0-.481-.705c-.202-.2-.438-.36-.708-.48a2.153 2.153 0 0 0-.872-.177c-.312 0-.602.06-.872.177-.27.12-.507.28-.708.48-.202.201-.362.437-.481.705a2.14 2.14 0 0 0-.178.87c0 .312.06.602.178.87a2.218 2.218 0 0 0 2.061 1.35m0-5.878c.503 0 .978.096 1.42.288.445.192.833.452 1.162.781a3.672 3.672 0 0 1 1.072 2.59c0 .503-.096.975-.289 1.418-.192.443-.453.83-.783 1.158-.33.329-.717.59-1.161.781a3.544 3.544 0 0 1-1.42.288c-.505 0-.978-.096-1.423-.288a3.796 3.796 0 0 1-1.168-.781 3.645 3.645 0 0 1-.79-1.158 3.523 3.523 0 0 1-.287-1.418 3.623 3.623 0 0 1 1.077-2.59c.335-.329.724-.59 1.168-.781a3.548 3.548 0 0 1 1.422-.288M149.084 9.96V2.656h1.414l-.002 1.014c.113-.183.265-.352.454-.507.165-.128.374-.244.63-.35.254-.105.576-.157.966-.157.37 0 .684.061.938.184.255.124.461.262.616.412.156.15.269.294.338.431.069.138.105.22.105.247 0 .028.033-.023.102-.15.07-.128.19-.274.364-.44.172-.163.402-.318.687-.465.285-.146.649-.219 1.089-.219.44 0 .806.082 1.095.246a2.309 2.309 0 0 1 1.077 1.275c.073.229.11.407.11.535V9.96h-1.415V5.396a.786.786 0 0 0-.111-.377 1.277 1.277 0 0 0-.287-.349 1.677 1.677 0 0 0-.404-.253 1.14 1.14 0 0 0-.476-.103c-.478 0-.87.146-1.174.439-.304.293-.456.73-.456 1.315V9.96h-1.416V5.424c0-.283-.09-.54-.272-.768-.182-.227-.445-.342-.793-.342-.232 0-.456.036-.668.11-.211.073-.4.182-.564.329a1.538 1.538 0 0 0-.39.548c-.095.22-.143.475-.143.767V9.96h-1.414zM52.818 65.072c.23 0 .426.186.426.403v1.83c0 .217-.196.403-.426.403-.23 0-.427-.186-.427-.404V66.22c0-.186-.164-.34-.362-.34h-4.76c-.23 0-.328.123-.328.34v10.015c0 .218.099.31.328.31h3.841c.296 0 .427.124.427.403 0 .28-.13.403-.427.403H47.27c-.23 0-.328.125-.328.342v13.487c0 .218.099.31.328.31h4.76c.198 0 .362-.155.362-.31v-1.271c0-.217.197-.403.427-.403.23 0 .426.186.426.403v1.922c0 .279-.196.466-.426.466h-6.37a.531.531 0 0 1-.525-.528V65.599c0-.28.23-.527.526-.527h6.369z" mask="url(#b)"/>
        <path fill="#212153" d="M55.52 65.879c-.215 0-.308.124-.308.34v24.96c0 .218.093.31.308.31h2.43c2.613 0 3.628-1.891 3.628-4.03v-17.55c0-2.201-1.015-4.03-3.629-4.03h-2.43zm-1.876 25.61h.246c.185 0 .338-.155.338-.31V66.22a.343.343 0 0 0-.338-.34h-.246a.409.409 0 0 1-.4-.403c0-.218.184-.404.4-.404h4.429c3.259 0 4.489 2.295 4.489 5.023v17.178c0 2.728-1.23 5.023-4.49 5.023h-4.428a.409.409 0 0 1-.4-.404c0-.217.184-.403.4-.403zM64.948 65.072h1.919c.21 0 .39.185.39.4 0 .217-.18.402-.39.402-.24 0-.39.153-.39.339V87.64c0 2.158.81 3.854 3.088 3.854 2.279 0 3.088-1.696 3.088-3.854V66.213a.337.337 0 0 0-.33-.339c-.299 0-.48-.185-.48-.401 0-.216.181-.401.39-.401h1.92c.21 0 .389.185.389.4 0 .217-.18.402-.39.402h-.27c-.15 0-.3.153-.3.339v21.335c0 2.743-1.108 4.748-4.017 4.748-2.998 0-4.047-2.005-4.047-4.748V66.213a.338.338 0 0 0-.33-.339h-.24a.403.403 0 0 1-.39-.401c0-.216.18-.401.39-.401M82.214 69.578c0-2.268-.564-3.71-2.909-3.71-2.257 0-3.147 1.84-3.147 4.017v17.598c0 2.146.89 4.016 3.147 4.016 2.345 0 2.94-1.594 2.94-3.71v-5.09c0-.336.177-.52.474-.52.327 0 .475.184.475.52v4.998c0 2.606-.92 4.599-3.889 4.599-2.94 0-4.098-2.269-4.098-4.997v-17.23c0-2.76 1.159-4.997 4.098-4.997 3.028 0 3.889 1.778 3.889 4.599v4.046c0 .184-.178.368-.386.368H81.68a.4.4 0 0 1 0-.797h.267c.237 0 .267-.153.267-.307v-3.403zM87.977 82.808h3.687c.263 0 .35-.124.322-.372l-2.077-15.472c0-.063-.03-.094-.089-.094-.087 0-.116.031-.116.094l-2.048 15.472c-.03.248.058.372.321.372m-3.071 8.681h.292c.147 0 .263-.123.292-.278l3.54-25.085c0-.123-.087-.247-.204-.247h-.321c-.206 0-.381-.187-.381-.403 0-.218.175-.404.38-.404h1.55c.264 0 .44.155.469.466L94.18 91.21c.029.155.146.278.292.278h.323c.204 0 .379.186.379.403 0 .218-.175.404-.38.404h-1.872c-.206 0-.38-.186-.38-.404 0-.217.174-.403.38-.403h.117c.146 0 .205-.123.205-.247l-.03-.218c-.673-4.712-.995-7.1-.995-7.13-.029-.187-.146-.28-.292-.28h-4.183c-.147 0-.264.093-.293.28l-1.025 7.378c0 .032 0 .217.176.217h.176c.205 0 .38.186.38.403 0 .218-.175.404-.38.404h-1.872c-.205 0-.38-.186-.38-.404 0-.217.175-.403.38-.403M101.974 65.879c-.203 0-.29.124-.29.34v14.822c0 .217.087.31.29.31h2.141c1.881 0 2.778-1.024 2.778-2.884V68.73c0-1.892-.926-2.852-2.778-2.852h-2.14zm-1.765 25.61h.232a.326.326 0 0 0 .318-.31V66.22c0-.185-.144-.34-.318-.34h-.232c-.203 0-.376-.187-.376-.403 0-.218.173-.404.376-.404h4.022c2.46 0 3.588 1.334 3.588 3.69v9.643c0 2.326-1.128 3.72-3.588 3.72h-2.257c-.203 0-.29.124-.29.341v8.713c0 .155.145.31.29.31.29 0 .463.186.463.403 0 .249-.174.404-.376.404h-1.852c-.203 0-.376-.155-.376-.404 0-.217.173-.403.376-.403zM112.603 82.808h3.686c.264 0 .351-.124.322-.372l-2.077-15.472c0-.063-.029-.094-.088-.094-.087 0-.117.031-.117.094l-2.048 15.472c-.029.248.059.372.322.372m-3.072 8.681h.292c.147 0 .264-.123.293-.278l3.54-25.085c0-.123-.088-.247-.205-.247h-.321c-.206 0-.38-.187-.38-.403 0-.218.174-.404.38-.404h1.55c.263 0 .44.155.469.466l3.656 25.673c.03.155.146.278.293.278h.322c.204 0 .38.186.38.403 0 .218-.176.404-.38.404h-1.873c-.204 0-.38-.186-.38-.404 0-.217.176-.403.38-.403h.117c.146 0 .205-.123.205-.247l-.03-.218c-.672-4.712-.995-7.1-.995-7.13-.029-.187-.145-.28-.291-.28h-4.184c-.146 0-.264.093-.293.28l-1.023 7.378c0 .032 0 .217.176.217h.175c.205 0 .38.186.38.403 0 .218-.175.404-.38.404h-1.873c-.205 0-.38-.186-.38-.404 0-.217.175-.403.38-.403" mask="url(#b)"/>
        <path fill="#212153" d="M122.067 65.879c-.21 0-.301.124-.301.34v14.79c0 .217.09.311.301.311h2.21c1.906 0 2.873-.962 2.873-2.853V68.73c0-1.892-.967-2.852-2.874-2.852h-2.209zm-1.875 25.61h.272c.182 0 .333-.155.333-.31V66.22a.34.34 0 0 0-.333-.34h-.272a.405.405 0 0 1-.393-.403c0-.218.182-.404.393-.404h4.205c2.542 0 3.752 1.302 3.752 3.628v9.612c0 1.612-.575 2.76-2.178 3.162-.091.032-.122.062-.122.125 0 .092.031.123.122.123 1.785.217 2.54 1.303 2.54 3.318v5.643c0 .496.213.776.606.806h.272c.212 0 .394.186.394.403a.386.386 0 0 1-.394.404h-.575c-.847 0-1.27-.528-1.27-1.613v-5.736c0-1.86-.817-2.821-2.783-2.821h-2.694c-.21 0-.301.123-.301.34v8.713c0 .155.15.31.301.31.303 0 .454.186.454.403a.386.386 0 0 1-.393.404h-1.936a.386.386 0 0 1-.393-.404c0-.217.182-.403.393-.403z" mask="url(#b)"/>
        <path fill="#212153" d="M132.57 82.808h3.686c.263 0 .35-.124.321-.372L134.5 66.964c0-.063-.029-.094-.087-.094-.088 0-.117.031-.117.094l-2.048 15.472c-.03.248.058.372.322.372m-3.071 8.681h.291c.147 0 .264-.123.293-.278l3.54-25.085c0-.123-.088-.247-.205-.247h-.322c-.205 0-.38-.187-.38-.403 0-.218.175-.404.38-.404h1.55c.264 0 .44.155.469.466l3.656 25.673c.029.155.147.278.293.278h.322c.204 0 .38.186.38.403 0 .218-.176.404-.38.404h-1.873c-.204 0-.38-.186-.38-.404 0-.217.176-.403.38-.403h.118c.145 0 .204-.123.204-.247l-.029-.218a673.68 673.68 0 0 1-.995-7.13c-.029-.187-.146-.28-.292-.28h-4.183c-.146 0-.264.093-.293.28l-1.024 7.378c0 .032 0 .217.176.217h.175c.205 0 .38.186.38.403 0 .218-.175.404-.38.404H129.5c-.205 0-.382-.186-.382-.404 0-.217.177-.403.382-.403M147.212 82.808h3.686c.263 0 .35-.124.321-.372l-2.076-15.472c0-.063-.03-.094-.089-.094-.087 0-.116.031-.116.094l-2.048 15.472c-.029.248.058.372.322.372m-3.072 8.681h.292c.146 0 .263-.123.292-.278l3.54-25.085c0-.123-.087-.247-.204-.247h-.321c-.206 0-.381-.187-.381-.403 0-.218.175-.404.38-.404h1.55c.264 0 .44.155.47.466l3.655 25.673c.03.155.147.278.293.278h.322c.205 0 .38.186.38.403 0 .218-.175.404-.38.404h-1.873c-.204 0-.38-.186-.38-.404 0-.217.176-.403.38-.403h.118c.146 0 .204-.123.204-.247l-.029-.218c-.673-4.712-.995-7.1-.995-7.13-.029-.187-.146-.28-.292-.28h-4.183c-.147 0-.264.093-.294.28l-1.023 7.378c0 .032 0 .217.176.217h.175c.205 0 .38.186.38.403 0 .218-.175.404-.38.404h-1.872c-.205 0-.38-.186-.38-.404 0-.217.175-.403.38-.403M12.174 127.535c-.164-.315-.216-.61-.154-.886.062-.274.195-.501.402-.678.205-.177.464-.266.772-.266.31 0 .608.099.896.295.207.276.443.531.712.768.267.235.464.511.588.826.247.512.421 1.26.525 2.242.102.985.175 2.057.216 3.217.04 1.16.051 2.332.03 3.512-.02 1.18-.05 2.203-.092 3.069.082.434.124.876.124 1.328 0 .452.02.895.062 1.328 2.76-3.58 5.357-7.23 7.79-10.949a409.803 409.803 0 0 1 7.54-11.125c.207-.354.475-.57.804-.65.33-.077.619-.058.866.06s.443.325.587.62c.145.295.134.64-.03 1.032a206.724 206.724 0 0 0-2.999 6.02 150.981 150.981 0 0 1-3.863 7.466 107.968 107.968 0 0 1-4.297 7.142c-1.464 2.224-2.874 3.906-4.234 5.046-.33.274-.753.482-1.268.62a10.1 10.1 0 0 0-1.33.443c-1.442.236-2.471-.257-3.09-1.477-.413-.982-.65-2.054-.711-3.216-.062-1.16-.052-2.35.03-3.57.083-1.219.217-2.44.402-3.66.186-1.219.32-2.37.402-3.453.083-1.081.093-2.064.032-2.95-.062-.886-.3-1.603-.712-2.154M37.965 115.912c.235.353.343.727.323 1.118-.02.392-.128.725-.323 1a1.195 1.195 0 0 1-.794.499c-.334.059-.697-.05-1.089-.323-.431-.314-.656-.666-.676-1.059-.02-.391.089-.735.324-1.029a1.56 1.56 0 0 1 .94-.559c.393-.077.824.04 1.295.353m-4.646 13.111c.626-.9 1.165-1.282 1.617-1.145.45.138.677.597.677 1.381-.315 1.764-.61 3.45-.883 5.057a75.972 75.972 0 0 0-.618 4.233c-.137 1.215-.176 2.205-.117 2.97.059.763.303 1.166.735 1.205v.058c.51.197 1.136.245 1.882.147a9.132 9.132 0 0 0 2.323-.647 16.119 16.119 0 0 0 2.382-1.234 11.851 11.851 0 0 0 2.118-1.676c.352-.117.666-.137.94-.059.275.08.49.216.647.412.156.196.236.441.236.735s-.118.579-.354.852c-2.784 2.235-5.146 3.744-7.086 4.528-1.941.783-3.51 1.058-4.706.822-1.196-.234-2.039-.872-2.528-1.91-.491-1.039-.697-2.243-.618-3.616.196-2.547.607-4.752 1.235-6.614a69.034 69.034 0 0 1 2.118-5.499" mask="url(#b)"/>
        <path fill="#212153" d="M65.088 111.917c.04 0 .061-.02.061-.06 0-.08.02-.16.062-.242 0 .04-.042.101-.123.182v.12zm-6.636 27.742a.663.663 0 0 0-.061.302c.04-.04.061-.14.061-.302zm-12.165 1.87c1.556-1.527 3.052-3.276 4.486-5.247a74.42 74.42 0 0 0 4.054-6.212c-.287-.12-.512-.16-.675-.12-1.189.563-2.212 1.247-3.073 2.05a13.36 13.36 0 0 0-2.242 2.744A17.001 17.001 0 0 0 47.271 138a25.711 25.711 0 0 0-.984 3.529zm8.233-14.112a3.877 3.877 0 0 1 1.475.542l.307-.602c.45-2.292.973-4.554 1.567-6.785a239.756 239.756 0 0 1 1.874-6.664c.204-.764.491-1.8.86-3.107a21.83 21.83 0 0 1 1.413-3.71c.573-1.165 1.28-2.11 2.12-2.833.838-.724 1.852-.865 3.04-.423.41.282.697.543.861.785.163.24.307.583.43 1.025.123.765.112 1.609-.031 2.533a28.41 28.41 0 0 1-.584 2.804c-.245.946-.521 1.87-.829 2.774-.307.905-.583 1.72-.83 2.444a86.815 86.815 0 0 1-2.488 6.422 70.775 70.775 0 0 1-3.348 6.725c-.369 1.85-.706 3.689-1.014 5.518-.307 1.83-.625 3.689-.952 5.579v-.18a37.601 37.601 0 0 0-.246 3.165c-.041 1.106.164 2.08.615 2.926.531 0 1.176-.292 1.935-.876a19.036 19.036 0 0 0 2.242-2.05 88.255 88.255 0 0 0 2.059-2.262c.634-.723 1.095-1.245 1.382-1.568.328-.241.655-.351.983-.331.328.02.594.13.799.331.204.202.316.463.338.784.02.323-.093.644-.338.966a30.185 30.185 0 0 0-2.335 2.713 25.444 25.444 0 0 1-2.396 2.714c-1.393 1.367-2.611 2.191-3.656 2.473-1.044.28-1.925.17-2.642-.332-.717-.503-1.259-1.356-1.628-2.562-.368-1.208-.573-2.594-.614-4.162a41.81 41.81 0 0 1-.062-2.262c0-.744.041-1.517.123-2.322a47.7 47.7 0 0 1-3.962 4.643 37.589 37.589 0 0 1-4.21 3.74c-.328.161-.613.271-.86.332-.245.06-.552.069-.92.03-.206-.081-.39-.151-.553-.212-.165-.06-.35-.13-.553-.21-.451-.242-.76-.493-.923-.754-.163-.26-.287-.612-.368-1.056-.041-1.085.133-2.412.522-3.98a24.45 24.45 0 0 1 1.66-4.614 23.615 23.615 0 0 1 2.488-4.131c.941-1.246 1.924-2.11 2.949-2.593.614-.321 1.29-.653 2.027-.995a4.274 4.274 0 0 1 2.273-.392z" mask="url(#b)"/>
        <path fill="#212153" d="M70.978 140.472a7.49 7.49 0 0 0 2.492-2.202 29.28 29.28 0 0 0 1.794-2.835c.547-.985 1.084-1.94 1.61-2.865a8.874 8.874 0 0 1 2.007-2.413c-.527-.16-.811-.543-.852-1.146l-.06-.543-1.703-.543c-.932.603-1.742 1.398-2.43 2.383a15.086 15.086 0 0 0-1.703 3.197 17.83 17.83 0 0 0-.973 3.529 14.249 14.249 0 0 0-.182 3.438M80.4 128.89c0 .162-.041.363-.122.604.81-.16 1.459-.01 1.946.452.486.462.708 1.157.668 2.081a46.653 46.653 0 0 1-.76 2.835 83.89 83.89 0 0 0-.973 3.589 45.024 45.024 0 0 0-.73 3.499c-.181 1.106-.172 1.981.032 2.623a3.655 3.655 0 0 0 1.732-.573c.547-.34 1.073-.743 1.58-1.206.507-.461.983-.955 1.43-1.478.445-.522.85-1.004 1.215-1.447.324-.242.648-.352.972-.332.325.021.588.13.79.332.203.201.314.462.335.783.02.323-.091.644-.334.966-.041.04-.273.332-.7.875a35.556 35.556 0 0 1-3.496 3.77c-.689.642-1.336 1.085-1.944 1.327-.73.321-1.55.482-2.462.482-.912 0-1.591-.423-2.037-1.266a10.1 10.1 0 0 1-.76-2.413 13.847 13.847 0 0 1-.212-2.413c-.73.723-1.531 1.348-2.402 1.87a97.683 97.683 0 0 1-2.826 1.628 3.17 3.17 0 0 1-1.308-.03 5.313 5.313 0 0 1-1.337-.482 4.697 4.697 0 0 1-1.155-.845 2.613 2.613 0 0 1-.7-1.176c-.324-1.004-.375-2.332-.152-3.981a25.084 25.084 0 0 1 1.216-4.977 26.137 26.137 0 0 1 2.128-4.613c.83-1.408 1.712-2.373 2.645-2.896.526-.321 1.043-.643 1.55-.965a4.042 4.042 0 0 1 1.611-.604c.689-.12 1.316-.1 1.884.06a3.56 3.56 0 0 1 1.49.845c.425.403.739.865.942 1.388.203.523.284 1.086.244 1.688M102.942 135.118c.163-1.595.358-3.17.583-4.725.224-1.555.5-3.089.829-4.605-.983.2-1.883.41-2.702.628-.82.22-1.392.41-1.719.568-.206.081-.43.15-.676.21-.245.06-.47.07-.675.03a.986.986 0 0 1-.521-.27c-.145-.139-.215-.367-.215-.687-.083-.797.378-1.545 1.381-2.243 1.003-.697 2.158-1.306 3.47-1.824.817-.678 1.452-1.296 1.902-1.854a8.88 8.88 0 0 0 1.106-1.734c.286-.599.531-1.265.736-2.004.205-.738.47-1.605.799-2.602.122-.478.307-1.256.552-2.333.246-1.076.573-2.142.983-3.199.408-1.056.921-1.953 1.535-2.692.614-.737 1.37-1.006 2.272-.806.408.12.624.408.644.866.02.46-.092 1.247-.337 2.363a223.068 223.068 0 0 1-1.076 4.575c-.47 1.935-.992 4.456-1.564 7.566a31.747 31.747 0 0 1 2.763-.12 35.6 35.6 0 0 1 2.701.09l2.701.209c.41 0 .737.11.983.33.245.219.378.468.4.746.019.28-.062.55-.247.808-.184.26-.48.41-.89.448-.452.12-1.135.27-2.057.45a173.59 173.59 0 0 0-5.74 1.225c-.86.2-1.455.359-1.782.478a301.95 301.95 0 0 0-.981 4.874 62.222 62.222 0 0 0-.768 5.085 45.972 45.972 0 0 0-.276 4.964c0 1.615.122 3.08.368 4.396.123.2.47.14 1.043-.18.573-.318 1.28-.867 2.119-1.644.838-.778 1.78-1.774 2.824-2.991 1.044-1.216 2.098-2.64 3.163-4.276.327-.24.654-.349.982-.329.328.02.593.13.798.329.205.2.316.459.338.778.02.32-.093.637-.338.956-.819 1.555-1.822 3.151-3.008 4.785-1.188 1.635-2.406 3.05-3.654 4.246-1.249 1.196-2.467 2.023-3.653 2.483-1.188.457-2.19.288-3.009-.509a7.098 7.098 0 0 1-1.78-2.781 11.873 11.873 0 0 1-.645-3.29 24.531 24.531 0 0 1 .062-3.469c.101-1.175.193-2.282.276-3.319" mask="url(#b)"/>
        <path fill="#212153" d="M123.379 133.448c-.84-.398-1.318-.957-1.439-1.675a16.858 16.858 0 0 0-1.437 4.488 23.39 23.39 0 0 0-.36 4.667c.52-.08 1.029-.329 1.528-.748a7.85 7.85 0 0 0 1.348-1.466c.398-.558.757-1.136 1.077-1.736.32-.598.58-1.115.78-1.554.278-.599.439-1.138.48-1.616v-.12c-.321-.08-.66-.11-1.02-.09-.359.02-.68-.03-.957-.15zm.598-4.547c0 .04.01.08.03.12.02.04.03.08.03.119a45.333 45.333 0 0 1 6.739-2.483 210.357 210.357 0 0 1 6.917-1.825c.72 0 1.169.29 1.348.868.18.578-.05 1.047-.689 1.405-1.518.64-3.045 1.277-4.582 1.916a72.732 72.732 0 0 0-4.581 2.094c.518.798.737 1.696.658 2.693-.081.997-.26 1.955-.539 2.872-.24.758-.58 1.565-1.018 2.423a15.94 15.94 0 0 1-1.558 2.453c-.599.778-1.268 1.477-2.007 2.095-.739.619-1.487 1.068-2.245 1.346-.48.2-.999.3-1.557.3-.56 0-1.119.04-1.678.119-.44-.08-.779-.18-1.017-.3-.24-.12-.52-.337-.84-.657-.2-.359-.44-.708-.718-1.048a3.124 3.124 0 0 1-.6-1.107c-.32-1.036-.349-2.244-.09-3.62.26-1.376.68-2.761 1.259-4.158a25.042 25.042 0 0 1 2.036-3.92c.779-1.216 1.528-2.183 2.246-2.902.798-.718 1.498-.618 2.096.3l.36.897zM154.272 111.917c.04 0 .061-.02.061-.06 0-.08.02-.16.062-.242 0 .04-.042.101-.123.182v.12zm-6.636 27.742a.663.663 0 0 0-.06.302c.04-.04.06-.14.06-.302zm-12.164 1.87c1.556-1.527 3.05-3.276 4.485-5.247a74.624 74.624 0 0 0 4.055-6.212c-.288-.12-.513-.16-.676-.12-1.189.563-2.212 1.247-3.072 2.05a13.338 13.338 0 0 0-2.243 2.744 17.094 17.094 0 0 0-1.566 3.256 25.82 25.82 0 0 0-.983 3.529zm8.232-14.112a3.867 3.867 0 0 1 1.475.542l.307-.602c.45-2.292.972-4.554 1.567-6.785a245.28 245.28 0 0 1 1.874-6.664c.204-.764.491-1.8.86-3.107a21.828 21.828 0 0 1 1.413-3.71c.573-1.165 1.28-2.11 2.12-2.833.839-.724 1.852-.865 3.041-.423.408.282.696.543.86.785.163.24.307.583.43 1.025.122.765.112 1.609-.03 2.533-.145.926-.339 1.86-.584 2.804a39.86 39.86 0 0 1-.83 2.774l-.83 2.444a87.515 87.515 0 0 1-2.487 6.422 70.971 70.971 0 0 1-3.349 6.725c-.369 1.85-.706 3.689-1.013 5.518-.308 1.83-.626 3.689-.952 5.579v-.18a36.959 36.959 0 0 0-.246 3.165c-.042 1.106.163 2.08.614 2.926.53 0 1.176-.292 1.935-.876a18.979 18.979 0 0 0 2.243-2.05 89.636 89.636 0 0 0 2.058-2.262c.634-.723 1.095-1.245 1.382-1.568.328-.241.655-.351.983-.331.327.02.593.13.799.331.204.202.317.463.337.784.02.323-.09.644-.337.966a30.439 30.439 0 0 0-2.335 2.713 25.358 25.358 0 0 1-2.396 2.714c-1.393 1.367-2.611 2.191-3.655 2.473-1.045.28-1.926.17-2.642-.332-.717-.503-1.26-1.356-1.628-2.562-.37-1.208-.574-2.594-.615-4.162a41.803 41.803 0 0 1-.06-2.262c0-.744.039-1.517.122-2.322a47.598 47.598 0 0 1-3.963 4.643 37.652 37.652 0 0 1-4.209 3.74c-.328.161-.614.271-.86.332-.246.06-.552.069-.921.03-.206-.081-.39-.151-.553-.212-.165-.06-.35-.13-.554-.21-.45-.242-.759-.493-.922-.754-.163-.26-.286-.612-.368-1.056-.041-1.085.133-2.412.523-3.98a24.343 24.343 0 0 1 1.66-4.614 23.612 23.612 0 0 1 2.487-4.131c.941-1.246 1.924-2.11 2.948-2.593.615-.321 1.291-.653 2.028-.995a4.275 4.275 0 0 1 2.273-.392z" mask="url(#b)"/>
        <path fill="#212153" d="M159.496 140.472a7.49 7.49 0 0 0 2.492-2.202 29.28 29.28 0 0 0 1.794-2.835c.547-.985 1.084-1.94 1.61-2.865a8.885 8.885 0 0 1 2.006-2.413c-.526-.16-.81-.543-.85-1.146l-.06-.543-1.703-.543c-.933.603-1.743 1.398-2.432 2.383a15.124 15.124 0 0 0-1.702 3.197 17.828 17.828 0 0 0-.973 3.529 14.288 14.288 0 0 0-.182 3.438m9.423-11.582c0 .162-.041.363-.122.604.81-.16 1.458-.01 1.945.452.487.462.71 1.157.669 2.081a46.184 46.184 0 0 1-.76 2.835 85.048 85.048 0 0 0-.973 3.589 45.388 45.388 0 0 0-.73 3.499c-.181 1.106-.172 1.981.03 2.623a3.655 3.655 0 0 0 1.734-.573c.547-.34 1.073-.743 1.58-1.206a16.31 16.31 0 0 0 1.43-1.478c.444-.522.85-1.004 1.215-1.447.324-.242.648-.352.973-.332.323.021.586.13.79.332.202.201.313.462.335.783.019.323-.092.644-.335.966-.041.04-.274.332-.699.875a35.286 35.286 0 0 1-3.496 3.77c-.69.642-1.337 1.085-1.945 1.327-.729.321-1.55.482-2.462.482-.912 0-1.591-.423-2.037-1.266a10.066 10.066 0 0 1-.76-2.413 13.847 13.847 0 0 1-.212-2.413 12.59 12.59 0 0 1-2.402 1.87 98.729 98.729 0 0 1-2.826 1.628 3.17 3.17 0 0 1-1.308-.03 5.296 5.296 0 0 1-1.336-.482 4.686 4.686 0 0 1-1.156-.845 2.604 2.604 0 0 1-.698-1.176c-.325-1.004-.376-2.332-.153-3.981a25.084 25.084 0 0 1 1.215-4.977 26.083 26.083 0 0 1 2.128-4.613c.83-1.408 1.712-2.373 2.645-2.896.526-.321 1.043-.643 1.55-.965a4.037 4.037 0 0 1 1.611-.604c.689-.12 1.317-.1 1.884.06a3.56 3.56 0 0 1 1.49.845c.426.403.74.865.942 1.388.203.523.284 1.086.244 1.688" mask="url(#b)"/>
        <path fill="#212153" d="M150.658 166c-11.099 0-23.842-1.742-38.574-3.757-28.346-3.877-63.756-4.235-109.051 1.875-1.443.195-1.975-.382-2.161-1.197-.465-2.04-.816-5.738-.866-6.262a1.336 1.336 0 0 1 1.208-1.455c46.577-4.445 82.429.456 111.236 4.396 18.708 2.558 33.485 6.182 46.032 4.988 13.352-1.268 23.8-6.679 31.467-16.35 9.097-11.476 6.51-18.567 5.83-20.14-.655-1.513-1.875-2.425-3.437-2.569-2.088-.191-5.288 1.037-8.013 5.068-2.604 3.853-7.732 10.675-7.998 11.036-.44.593-2.457 2.42-3.054 1.983a1.329 1.329 0 0 1-.287-1.865c.065-.088 6.537-8.836 9.108-12.64 2.871-4.248 6.795-6.577 10.493-6.239 2.55.237 4.611 1.757 5.656 4.174 1.06 2.454 2.477 9.488-7.262 21.774-10.437 13.166-23.487 17.18-40.327 17.18M52.08 59c-1.98 0-3.586-1.161-4.266-3.18l-1.731-5.073H31.06l-1.669 5.073c-.68 2.019-2.287 3.18-4.265 3.18-2.288 0-4.39-1.65-4.39-4.218 0-.612.123-1.223.31-1.712L32.42 21.954c1.174-3.301 3.029-5.258 6.244-5.258 3.214 0 5.13 1.957 6.305 5.258L56.16 53.07c.185.49.308 1.1.308 1.712 0 2.568-2.101 4.218-4.389 4.218m4.806-6.185l-11.19-31.113c-1.38-3.88-3.68-5.766-7.03-5.766-3.31 0-5.59 1.887-6.968 5.76L20.323 52.807a5.722 5.722 0 0 0-.356 1.975c0 3.116 2.622 4.978 5.159 4.978 2.346 0 4.213-1.382 4.995-3.704l1.498-4.548H45.53l1.553 4.553c.78 2.317 2.648 3.699 4.995 3.699 2.536 0 5.158-1.862 5.158-4.978 0-.666-.126-1.369-.352-1.967" mask="url(#b)"/>
        <path fill="#212153" d="M35.019 41.733l3.943-11.687 3.893 11.687H35.02zm3.854-13.845l-4.93 14.608h9.983L39.06 27.888h-.187z" mask="url(#b)"/>
        <path fill="#212153" d="M45.117 43.424c-.289.4-.752.638-1.244.638h-9.877c-.493 0-.957-.238-1.245-.64a1.551 1.551 0 0 1-.213-1.39l4.877-14.763a1.537 1.537 0 0 1 1.458-1.057h.185c.665 0 1.253.428 1.46 1.063l4.815 14.764c.153.47.073.985-.216 1.385zm-1.27-21.851c-1.338-3.82-3.295-4.309-4.85-4.309-1.623 0-3.46.51-4.787 4.304L22.847 53.155c-.14.376-.218.812-.218 1.212 0 1.778 1.467 2.737 2.848 2.737 1.343 0 2.338-.77 2.802-2.17l1.664-5.139a1.537 1.537 0 0 1 1.46-1.065h15.002c.659 0 1.244.423 1.455 1.05l1.728 5.149c.467 1.404 1.462 2.175 2.805 2.175 1.38 0 2.848-.96 2.848-2.737 0-.4-.078-.836-.211-1.195l-11.183-31.6zM97.038 17.264c-1.683 0-2.853.601-4.21 3.773L83.91 41.395c-.247.564-.81.93-1.432.93h-.252c-.618 0-1.177-.36-1.427-.919L71.698 21.06c-1.428-3.19-2.607-3.795-4.283-3.795-2.239 0-3.522 1.427-3.522 3.916v33.063c0 1.845.961 2.861 2.706 2.861 1.64 0 2.58-1.042 2.58-2.861V33.896c0-.852.7-1.543 1.562-1.543h.314c.622 0 1.184.364 1.432.928l6.653 15.136c1.234 2.788 1.907 2.918 3.086 2.918 1.18 0 1.853-.13 3.089-2.921L91.9 33.286a1.562 1.562 0 0 1 1.434-.933h.314c.863 0 1.561.69 1.561 1.543v20.347c0 1.305.46 2.861 2.643 2.861 2.186 0 2.645-1.556 2.645-2.861V21.18c0-2.489-1.261-3.916-3.46-3.916" mask="url(#b)"/>
        <path fill="#212153" d="M101.727 54.66c0 2.75-1.666 4.34-4.135 4.34-2.468 0-4.134-1.59-4.134-4.34V34.606h-.308l-6.48 14.917c-1.296 2.934-2.345 3.79-4.443 3.79-2.099 0-3.148-.856-4.444-3.79l-6.541-14.917h-.309V54.66c0 2.75-1.728 4.34-4.073 4.34-2.468 0-4.196-1.59-4.196-4.34V22.075c0-3.3 1.975-5.379 4.998-5.379 2.716 0 4.197 1.467 5.616 4.646l8.949 20.052h.246l8.764-20.052c1.357-3.179 2.838-4.646 5.553-4.646 3.024 0 4.937 2.08 4.937 5.38v32.583zM96.79 15.935c-3.584 0-5.127 2.456-6.258 5.104l-8.188 18.736-8.363-18.74c-1.368-3.062-2.965-5.1-6.319-5.1-3.448 0-5.766 2.467-5.766 6.14v32.583c0 3.051 1.995 5.101 4.964 5.101 2.896 0 4.84-2.05 4.84-5.1V37.562l5.38 12.266c1.402 3.174 2.7 4.246 5.147 4.246 2.445 0 3.744-1.072 5.147-4.25l5.317-12.237v17.071c0 3.099 1.923 5.101 4.901 5.101 2.979 0 4.903-2.002 4.903-5.1V22.074c0-3.73-2.24-6.139-5.705-6.139zM131.692 45.671c-.864 2.635-2.906 4.028-5.903 4.028-2.997 0-5.039-1.394-5.904-4.026-.482-1.498-.645-3.724-.645-8.821 0-5.097.163-7.323.644-8.817.866-2.635 2.908-4.029 5.905-4.029 2.998 0 5.04 1.393 5.903 4.025.483 1.497.646 3.723.646 8.821 0 5.096-.163 7.321-.646 8.819m-5.903-22.431c-3.474 0-5.708 1.725-6.639 4.558-.496 1.539-.682 3.634-.682 9.054s.186 7.514.682 9.054c.931 2.833 3.165 4.558 6.64 4.558 3.473 0 5.708-1.725 6.637-4.558.497-1.54.683-3.634.683-9.054s-.186-7.515-.683-9.054c-.93-2.833-3.164-4.558-6.638-4.558" mask="url(#b)"/>
        <path fill="#212153" d="M141.148 49.062c-2.23 6.632-7.989 9.948-15.358 9.948-7.37 0-13.129-3.316-15.358-9.948-.929-2.894-1.177-5.185-1.177-11.214 0-6.029.248-8.32 1.177-11.214 2.23-6.631 7.988-9.948 15.358-9.948s13.128 3.317 15.358 9.948c.929 2.894 1.175 5.185 1.175 11.214 0 6.029-.246 8.32-1.175 11.214m.732-22.661c-2.236-6.65-8.1-10.465-16.09-10.465s-13.855 3.815-16.093 10.474c-.963 3-1.212 5.352-1.212 11.438s.249 8.438 1.212 11.437l.003.01c2.235 6.65 8.1 10.465 16.09 10.465s13.854-3.815 16.093-10.475c.962-2.996 1.21-5.347 1.21-11.437 0-6.09-.248-8.441-1.213-11.447" mask="url(#b)"/>
        <path fill="#212153" d="M133.54 46.626c-1.17 3.547-4.116 5.576-8.083 5.576-3.967 0-6.912-2.03-8.08-5.568-.574-1.77-.756-4.064-.756-9.45 0-5.387.182-7.68.752-9.441 1.172-3.548 4.117-5.577 8.084-5.577 3.967 0 6.913 2.03 8.08 5.568.574 1.768.757 4.063.757 9.45s-.183 7.681-.754 9.442m-8.083-29.362c-7.018 0-11.946 3.207-13.876 9.031-.872 2.757-1.1 5-1.1 10.889 0 5.89.228 8.132 1.107 10.908 1.923 5.804 6.85 9.012 13.869 9.012 7.018 0 11.946-3.208 13.876-9.032.871-2.754 1.098-4.996 1.098-10.888 0-5.892-.227-8.135-1.104-10.908-1.924-5.805-6.852-9.012-13.87-9.012M165.111 36.154h-7.43c-1.09 0-1.912-.817-1.912-1.9v-9.668c0-1.084.823-1.901 1.912-1.901h7.43c4.327 0 7.236 2.719 7.236 6.766 0 4.009-2.909 6.703-7.236 6.703zm6.513 5.302a1.521 1.521 0 0 1-.12-1.194c.124-.397.406-.727.78-.914 3.867-1.922 6.084-5.553 6.084-9.96 0-6.854-5.154-11.46-12.824-11.46h-13.373c-2.001 0-2.422 1.344-2.422 2.471v33.434c0 1.987 1.194 3.271 3.041 3.271 1.838 0 2.98-1.253 2.98-3.271V42.689c0-1.085.822-1.902 1.911-1.902h6.192c.574 0 1.1.318 1.366.824l7.057 13.485c.73 1.366 1.715 2.008 3.092 2.008 2.062 0 2.794-1.497 2.794-2.778 0-.66-.147-1.265-.436-1.799l-6.122-11.07z" mask="url(#b)"/>
        <path fill="#212153" d="M164.764 33.795h-6.934V25.3h6.934c2.996 0 4.858 1.638 4.858 4.277 0 2.6-1.862 4.217-4.858 4.217m0-9.227h-7.327c-.244 0-.367.118-.367.353v9.254c0 .235.123.353.367.353h7.328c3.418 0 5.616-1.945 5.616-4.95 0-3.066-2.198-5.01-5.616-5.01" mask="url(#b)"/>
        <path fill="#212153" d="M175.628 59.005c-1.897 0-3.476-.85-4.552-2.793l-7.207-13.296h-6.323c-.252 0-.38.121-.38.364v10.99c0 2.853-1.896 4.735-4.614 4.735-2.72 0-4.679-1.882-4.679-4.736V21.303c0-2.369 1.517-3.948 4.047-3.948h13.656c8.851 0 14.668 5.283 14.668 12.811 0 5.04-2.655 9.046-7.082 11.171l6.26 10.929c.443.79.632 1.64.632 2.49 0 2.306-1.644 4.249-4.426 4.249zm-1.393-17.362c4.33-2.37 6.795-6.51 6.795-11.477 0-7.987-6.355-13.566-15.454-13.566H151.92c-2.936 0-4.833 1.846-4.833 4.703v32.966c0 3.233 2.247 5.491 5.465 5.491 3.18 0 5.4-2.258 5.4-5.49v-10.6h5.44l6.986 12.891.003.005c1.157 2.09 2.971 3.194 5.247 3.194 3.02 0 5.213-2.105 5.213-5.005 0-1.03-.245-1.987-.73-2.853l-5.876-10.259z" mask="url(#b)"/>
    </g>
</svg>
