<svg xmlns="http://www.w3.org/2000/svg" width="41" height="41" viewBox="0 0 41 41">
    <path fill="#221F56" fill-rule="nonzero" d="M9.063.513L32.66.925a8 8 0 0 1 7.859 8.138l-.412 23.596a8 8 0 0 1-8.138 7.859l-23.596-.412a8 8 0 0 1-7.859-8.138L.925 8.372A8 8 0 0 1 9.063.513zm22.574 8.712H9.394c-1.23 0-2.222.92-2.222 2.052 0 1.133.996 2.053 2.222 2.053h22.243c1.23 0 2.223-.92 2.223-2.053.004-1.132-.993-2.052-2.223-2.052zm0 9.238H9.394c-1.23 0-2.222.92-2.222 2.053 0 1.135.996 2.052 2.222 2.052h22.243c1.23 0 2.223-.92 2.223-2.052.004-1.136-.993-2.053-2.223-2.053zm0 9.238H9.394c-1.23 0-2.222.92-2.222 2.053 0 1.136.996 2.053 2.222 2.053h22.243c1.23 0 2.223-.921 2.223-2.053.004-1.132-.993-2.053-2.223-2.053z"/>
</svg>
